# Alias OBJ Model File
# Exported from SketchUp, (c) 2000-2012 Trimble Navigation Limited
# File units = meters

mtllib first.mtl

g Mesh1 Model

usemtl FrontColor
v 0.865337 0 -0
vt -34.0684 0
vn 0 -1 -0
v 0.615337 0 -0
vt -24.2259 0
v 0.615337 0 -0.25
vt -24.2259 9.84252
v 0.647969 0 -0.247861
vt -25.5106 9.75832
v 0.680042 0 -0.241481
vt -26.7733 9.50714
v 0.711008 0 -0.23097
vt -27.9924 9.0933
v 0.740337 0 -0.216506
vt -29.1471 8.52387
v 0.767527 0 -0.198338
vt -30.2176 7.8086
v 0.792114 0 -0.176777
vt -31.1856 6.95971
v 0.813675 0 -0.15219
vt -32.0345 5.99175
v 0.831843 0 -0.125
vt -32.7497 4.92126
v 0.846307 0 -0.0956709
vt -33.3192 3.76657
v 0.856818 0 -0.0647048
vt -33.733 2.54743
v 0.863198 0 -0.0326315
vt -33.9842 1.28471
f 1/1/1 2/2/1 3/3/1 4/4/1 5/5/1 6/6/1 7/7/1 8/8/1 9/9/1 10/10/1 11/11/1 12/12/1 13/13/1 14/14/1 

v 1.53 0 -0
vt -60.2362 0
v 0 0 -0
vt 0 0
v 0 0 -2.72
vt 0 107.087
v 0.5723 0 -2.72
vt -22.5315 107.087
v 0.5723 0 -2.46
vt -22.5315 96.8504
v 0.606237 0 -2.46222
vt -23.8676 96.938
v 0.639593 0 -2.46886
vt -25.1808 97.1992
v 0.671798 0 -2.47979
vt -26.4487 97.6296
v 0.7023 0 -2.49483
vt -27.6496 98.2218
v 0.730578 0 -2.51373
vt -28.7629 98.9657
v 0.756148 0 -2.53615
vt -29.7696 99.8485
v 0.778572 0 -2.56172
vt -30.6524 100.855
v 0.797466 0 -2.59
vt -31.3963 101.969
v 0.812509 0 -2.6205
vt -31.9885 103.169
v 0.823441 0 -2.65271
vt -32.4189 104.437
v 0.830076 0 -2.68606
vt -32.6801 105.751
v 0.8323 0 -2.72
vt -32.7677 107.087
v 1.53 0 -2.72
vt -60.2362 107.087
v 1.53 0 -2.30474
vt -60.2362 90.7379
v 1.53 0 -2.15474
vt -60.2362 84.8324
v 1.53 0 -1.75019
vt -60.2362 68.9051
v 1.53 0 -0.959448
vt -60.2362 37.7736
v 1.53 0 -0.789448
vt -60.2362 31.0806
f 15/15/1 1/1/1 14/14/1 13/13/1 12/12/1 11/11/1 10/10/1 9/9/1 8/8/1 7/7/1 6/6/1 5/5/1 4/4/1 3/3/1 2/2/1 16/16/1 17/17/1 18/18/1 19/19/1 20/20/1 21/21/1 22/22/1 23/23/1 24/24/1 25/25/1 26/26/1 27/27/1 28/28/1 29/29/1 30/30/1 31/31/1 32/32/1 33/33/1 34/34/1 35/35/1 36/36/1 37/37/1 

v 0 0 -4.7177
vt 0 185.736
v 0 0 -5.51487
vt 0 217.121
v 1.53 0 -5.51487
vt -60.2362 217.121
v 1.53 0 -4.86314
vt -60.2362 191.462
v 1.53 0 -4.55314
vt -60.2362 179.258
v 1.53 0 -4.03224
vt -60.2362 158.75
v 0 0 -3.4177
vt 0 134.555
f 38/38/1 39/39/1 40/40/1 41/41/1 42/42/1 43/43/1 32/32/1 31/31/1 18/18/1 17/17/1 44/44/1 

v 1.53 0 -7
vt -60.2362 275.591
v 1.53 0 -6.1962
vt -60.2362 243.945
v 1.50259 0 -6.19441
vt -59.1571 243.874
v 1.47565 0 -6.18905
vt -58.0964 243.663
v 1.44964 0 -6.18022
vt -57.0723 243.316
v 1.425 0 -6.16807
vt -56.1024 242.837
v 1.40216 0 -6.15281
vt -55.2032 242.237
v 1.38151 0 -6.1347
vt -54.3901 241.523
v 1.3634 0 -6.11404
vt -53.677 240.71
v 1.34813 0 -6.0912
vt -53.0762 239.811
v 1.33599 0 -6.06657
vt -52.5978 238.841
v 1.32716 0 -6.04056
vt -52.2502 237.817
v 1.3218 0 -6.01361
vt -52.0392 236.756
v 1.32 0 -5.9862
vt -51.9685 235.677
v 1.53 0 -5.9862
vt -60.2362 235.677
v 0 0 -7
vt 0 275.591
v 0.293914 0 -7
vt -11.5714 275.591
v 0.973914 0 -7
vt -38.3431 275.591
f 45/45/1 46/46/1 47/47/1 48/48/1 49/49/1 50/50/1 51/51/1 52/52/1 53/53/1 54/54/1 55/55/1 56/56/1 57/57/1 58/58/1 59/59/1 40/40/1 39/39/1 60/60/1 61/61/1 62/62/1 

v 1.84 0 -4.55314
vt -72.4409 179.258
v 1.83735 0 -4.5936
vt -72.3365 180.851
v 1.82944 0 -4.63337
vt -72.0251 182.416
v 1.8164 0 -4.67177
vt -71.5119 183.928
v 1.79847 0 -4.70814
vt -70.8058 185.36
v 1.77594 0 -4.74186
vt -69.9189 186.687
v 1.7492 0 -4.77234
vt -68.8663 187.888
v 1.71872 0 -4.79908
vt -67.666 188.94
v 1.685 0 -4.82161
vt -66.3386 189.827
v 1.64863 0 -4.83954
vt -64.9068 190.533
v 1.61023 0 -4.85258
vt -63.395 191.046
v 1.57046 0 -4.86049
vt -61.8293 191.358
v 6 0 -7
vt -236.22 275.591
v 6 0 -6.60274
vt -236.22 259.95
v 6 0 -4.40274
vt -236.22 173.336
v 6 0 -4.03224
vt -236.22 158.75
f 43/43/1 42/42/1 63/63/1 64/64/1 65/65/1 66/66/1 67/67/1 68/68/1 69/69/1 70/70/1 71/71/1 72/72/1 73/73/1 74/74/1 41/41/1 40/40/1 59/59/1 46/46/1 45/45/1 75/75/1 76/76/1 77/77/1 78/78/1 

f 42/42/1 41/41/1 74/74/1 73/73/1 72/72/1 71/71/1 70/70/1 69/69/1 68/68/1 67/67/1 66/66/1 65/65/1 64/64/1 63/63/1 

f 46/46/1 59/59/1 58/58/1 57/57/1 56/56/1 55/55/1 54/54/1 53/53/1 52/52/1 51/51/1 50/50/1 49/49/1 48/48/1 47/47/1 

v 6.23 0 -6.60274
vt -245.276 259.95
v 6.23 0 -4.40274
vt -245.276 173.336
f 76/76/1 79/79/1 80/80/1 77/77/1 

v 1.54958 0 -2.15603
vt -61.007 84.8829
v 1.56882 0 -2.15985
vt -61.7647 85.0336
v 1.5874 0 -2.16616
vt -62.4962 85.2819
v 1.605 0 -2.17484
vt -63.189 85.6236
v 1.62131 0 -2.18574
vt -63.8313 86.0527
v 1.63607 0 -2.19868
vt -64.412 86.5621
v 1.649 0 -2.21343
vt -64.9214 87.1429
v 1.6599 0 -2.22974
vt -65.3505 87.7851
v 1.66858 0 -2.24734
vt -65.6922 88.478
v 1.67489 0 -2.26592
vt -65.9405 89.2094
v 1.67872 0 -2.28516
vt -66.0912 89.9671
v 1.68 0 -2.30474
vt -66.1417 90.7379
v 6 0 -3.6849
vt -236.22 145.075
v 6 0 -2.1249
vt -236.22 83.6576
v 6 0 -1.75019
vt -236.22 68.9051
f 35/35/1 34/34/1 81/81/1 82/82/1 83/83/1 84/84/1 85/85/1 86/86/1 87/87/1 88/88/1 89/89/1 90/90/1 91/91/1 92/92/1 33/33/1 32/32/1 43/43/1 78/78/1 93/93/1 94/94/1 95/95/1 

f 34/34/1 33/33/1 92/92/1 91/91/1 90/90/1 89/89/1 88/88/1 87/87/1 86/86/1 85/85/1 84/84/1 83/83/1 82/82/1 81/81/1 

v 6.15 0 -2.1249
vt -242.126 83.6576
v 6.15 0 -3.6849
vt -242.126 145.075
f 96/96/1 94/94/1 93/93/1 97/97/1 

v 1.55219 0 -0.790903
vt -61.1098 31.1379
v 1.574 0 -0.795241
vt -61.9685 31.3087
v 1.59506 0 -0.802389
vt -62.7975 31.5901
v 1.615 0 -0.812224
vt -63.5827 31.9773
v 1.63349 0 -0.824578
vt -64.3106 32.4637
v 1.65021 0 -0.83924
vt -64.9688 33.0409
v 1.66487 0 -0.855959
vt -65.5461 33.6992
v 1.67722 0 -0.874448
vt -66.0325 34.4271
v 1.68706 0 -0.894392
vt -66.4197 35.2123
v 1.69421 0 -0.915449
vt -66.7011 36.0413
v 1.69855 0 -0.937259
vt -66.8719 36.9
v 1.7 0 -0.959448
vt -66.9291 37.7736
v 6 0 -1.50926
vt -236.22 59.4198
v 6 0 -0.309263
vt -236.22 12.1757
v 6 0 -0
vt -236.22 0
f 15/15/1 37/37/1 98/98/1 99/99/1 100/100/1 101/101/1 102/102/1 103/103/1 104/104/1 105/105/1 106/106/1 107/107/1 108/108/1 109/109/1 36/36/1 35/35/1 95/95/1 110/110/1 111/111/1 112/112/1 

f 37/37/1 36/36/1 109/109/1 108/108/1 107/107/1 106/106/1 105/105/1 104/104/1 103/103/1 102/102/1 101/101/1 100/100/1 99/99/1 98/98/1 

v 6.18 0 -1.50926
vt -243.307 59.4198
v 6.18 0 -0.309263
vt -243.307 12.1757
f 110/110/1 113/113/1 114/114/1 111/111/1 

v 0.973914 0 -7.25
vt -38.3431 285.433
v 0.293914 0 -7.25
vt -11.5714 285.433
f 115/115/1 62/62/1 61/61/1 116/116/1 

f 18/18/1 31/31/1 30/30/1 29/29/1 28/28/1 27/27/1 26/26/1 25/25/1 24/24/1 23/23/1 22/22/1 21/21/1 20/20/1 19/19/1 

v -0.26 0 -3.4177
vt 10.2362 134.555
v -0.26 0 -4.7177
vt 10.2362 185.736
f 44/44/1 117/117/1 118/118/1 38/38/1 

